<?xml version="1.0" encoding="utf-8"?>
<!-- Generator: Adobe Illustrator 24.0.1, SVG Export Plug-In . SVG Version: 6.00 Build 0)  -->
<svg version="1.1" id="Layer_1" xmlns="http://www.w3.org/2000/svg" xmlns:xlink="http://www.w3.org/1999/xlink" x="0px" y="0px"
	 viewBox="0 0 934.6 139.8" style="enable-background:new 0 0 934.6 139.8;" xml:space="preserve">
<style type="text/css">
	.st0{fill:#6D6E71;}
	.st1{fill:#6F7073;}
	.st2{fill:#FDFDFD;}
	.st3{fill:#FEFEFE;}
	.st4{fill:#FCFCFC;}
	.st5{fill-rule:evenodd;clip-rule:evenodd;fill:#AE902F;}
	.st6{fill:#868789;}
	.st7{fill-rule:evenodd;clip-rule:evenodd;fill:#1A191C;}
	.st8{fill:#1A191C;}
</style>
<g>
	<g>
		<path class="st0" d="M562,96.7c0-4.8,0.1-9.5,0-14.3c0-2.2,0.3-3.4,2.9-3.3c7.2,0.2,14.4,0.1,21.6,0.2c2.5,0,4.9,0.7,7.1,1.8
			c4.2,2.3,5.9,7.3,3.1,10.9c-2,2.6-0.8,3.2,0.9,4.7c5.1,4.8,4.2,12-1.8,15.5c-2.6,1.5-5.4,2.2-8.4,2.2c-7.2,0-14.4-0.2-21.6,0.1
			c-3.1,0.1-3.9-1-3.8-3.9C562.1,105.9,562,101.3,562,96.7z"/>
		<path class="st0" d="M900.6,115.3c-7.4-0.3-14.3-2.1-19.9-7.3c-7-6.6-7-15.6-0.2-22.3c10.2-9.9,30.5-9.8,40.5,0.2
			c6.7,6.6,6.6,15.5-0.2,22C915.2,113.3,908.1,115.1,900.6,115.3z"/>
		<path class="st0" d="M837.5,88.8c-8.2-5.9-16.6-7.2-25.7-3.9c-6,2.2-10,7.1-10,11.9c0,5,3.8,9.7,10,12c6.3,2.3,12.6,2.4,18.9,0.2
			c1.8-0.6,3.4-1.5,4.7-2.8c1.3-1.3,2.8-2.9,2-4.8c-0.7-1.7-2.7-0.6-4.1-0.8c-1.7-0.2-3.4-0.1-5.1,0c-1.7,0-2-0.9-2-2.4
			c0-1.4,0.3-2.4,2-2.4c4.3,0,8.6,0,12.9,0c1.7,0,2.1,0.8,2,2.3c-0.1,5.5-1.7,10.2-6.6,13.4c-9.8,6.4-26.8,4.7-35.2-3.5
			c-6.9-6.7-6.9-15.6,0.1-22.3c8.2-7.9,24-9.6,34-3.9C838.3,83.4,837.7,85.6,837.5,88.8z"/>
		<path class="st0" d="M613.6,96.6c0-4.8,0.1-9.5,0-14.3c-0.1-2.3,0.6-3.2,3.1-3.2c9.7,0.1,19.3,0.1,29,0c1.6,0,3-0.2,3.1,2.2
			c0.1,2.6-1.3,2.6-3.2,2.6c-7.2,0-14.4,0.2-21.6-0.1c-3.5-0.1-5,0.4-5.1,4.6c-0.1,4.5,1.7,5,5.3,4.8c5.7-0.3,11.3,0,17-0.1
			c1.7,0,3,0,2.9,2.3c0,2.2-1.1,2.5-2.8,2.5c-6.1-0.1-12.3,0.1-18.4-0.1c-3-0.1-4,0.7-3.9,3.9c0.1,7.9-0.1,7.9,7.7,7.9
			c6.1,0,12.3,0,18.4,0c1.7,0,3.8-0.6,3.7,2.5c0,2.8-1.9,2.3-3.4,2.3c-9.5,0-19-0.1-28.5,0.1c-2.4,0-3.3-0.6-3.2-3.1
			C613.7,106.4,613.6,101.5,613.6,96.6z"/>
		<path class="st0" d="M743.1,114.7c8.4-12.9,16.1-24.9,24.1-37.2c7.9,12.2,15.7,24.2,23.5,36.2c-5.6,1.2-6.1,1.4-8.4-3.4
			c-2.7-5.6-6.6-7.9-12.7-6.8c-0.6,0.1-1.2,0.1-1.8,0c-7.8-1.4-13.6,0.9-16.6,8.7C749.7,115.6,746.6,113.9,743.1,114.7z"/>
		<path class="st0" d="M660.6,97c0-4.9,0.1-9.8,0-14.7c0-2,0.3-3.1,2.7-3.1c2.4,0,2.8,1.1,2.7,3.1c-0.1,7.8,0.1,15.6-0.1,23.5
			c-0.1,3.1,0.9,4,3.9,3.9c7-0.2,14.1-0.1,21.1,0c1.6,0,3.8-0.9,4,2.2c0.1,3.1-1.9,2.5-3.7,2.5c-9,0-18.1-0.1-27.1,0.1
			c-2.9,0.1-3.7-0.8-3.6-3.6C660.8,106.2,660.6,101.6,660.6,97z"/>
		<path class="st0" d="M721.9,114.3c-4.6,0-9.2-0.1-13.8,0c-2.2,0.1-3.3-0.3-3.3-2.9c0.1-9.8,0.1-19.6,0-29.4c0-1.8,0.3-2.8,2.5-2.8
			c2.1,0,3,0.6,3,2.9c-0.1,7.8,0.1,15.6-0.1,23.5c-0.1,3.2,0.9,4.2,4.1,4.1c6.6-0.2,13.2-0.2,19.8,0c1.8,0.1,5.1-1.8,5,2.4
			c-0.1,3.8-3.1,2.1-4.8,2.2C730.1,114.5,726,114.3,721.9,114.3z"/>
		<path class="st1" d="M856.9,96.4c0-4.8,0-9.5,0-14.3c0-1.7,0.1-2.9,2.4-2.9c2,0,3.1,0.4,3.1,2.8c-0.1,9.8-0.1,19.7,0,29.5
			c0,2.3-0.8,2.9-3,2.9c-2.2,0-2.5-1-2.5-2.8C857,106.5,856.9,101.5,856.9,96.4z"/>
		<path class="st2" d="M579.7,109.6c-1.9,0-3.1,0-4.3,0c-8.7,0-8.6,0-8.2-8.7c0.1-2.5,1.1-3,3.3-3c5.5,0.1,11,0,16.5,0.1
			c1.5,0,3.1,0.4,4.5,0.9c2.3,0.9,3.7,2.7,3.5,5.3c-0.1,2.5-1.5,3.9-3.7,4.7C587.4,110.3,583.2,109.2,579.7,109.6z"/>
		<path class="st3" d="M578.1,84.2c3.2,0,6.4-0.2,9.6,0.1c2.4,0.2,4.5,1.6,4.4,4.4c0,2.8-2.2,4.1-4.6,4.3
			c-6.1,0.3-12.2,0.6-18.3,0.1c-3.9-0.3-1.3-3.9-1.9-5.9c-0.4-1.7-0.1-3.3,2.4-3.2c2.7,0.2,5.5,0,8.2,0
			C578.1,84,578.1,84.1,578.1,84.2z"/>
		<path class="st3" d="M899.1,110.5c-4.4-0.2-10-1.5-14.4-5.9c-4.8-4.8-4.8-10.6-0.1-15.5c7.7-8,24.8-7.9,32.4,0.1
			c4.6,4.8,4.5,10.8-0.2,15.5C913.1,108.3,907.1,110.5,899.1,110.5z"/>
		<path class="st4" d="M774.3,98.5c-5.1,0-9.4,0-14.5,0c2.5-3.9,4.7-7.2,7.2-10.9C769.9,90.8,771.8,94.4,774.3,98.5z"/>
	</g>
	<g>
		<polyline class="st5" points="563.1,22 576.4,22 576.4,52.9 605.9,52.9 605.9,63.5 563.1,63.5 		"/>
		<path class="st5" d="M642.6,21.4c9,0,15.2,0.2,18.5,0.7c4.9,0.6,7.8,3,8.9,6.9c0.6,2.7,1,7.3,1,13.7c0,6.5-0.4,11.1-1,13.8
			c-1.1,3.9-4.1,6.3-8.9,6.9c-3.4,0.5-9.5,0.6-18.3,0.6h-0.2V53.2h0.1c5.1,0,8.5-0.1,10.1-0.3c1.7-0.2,3-0.6,3.8-1.2
			c0.7-0.6,1.2-1.4,1.4-2.5c0.3-1.1,0.4-3,0.4-5.5c0-3-0.1-5.1-0.3-6.6c-0.2-1.4-0.6-2.5-1.1-3.2c-0.7-0.9-1.8-1.4-3.3-1.7
			c-1.6-0.2-5.3-0.3-11.2-0.3h-0.1 M642.6,64.1c-8.9,0-15.1-0.2-18.5-0.6c-4.8-0.6-7.8-3-8.9-6.9c-0.7-2.7-1.1-7.4-1.1-14
			c0-6.3,0.4-10.8,1.1-13.5c1.1-3.9,4.1-6.3,8.9-6.9c3.4-0.5,9.5-0.7,18.5-0.7v10.8c-6.7,0-10.7,0.2-12,0.5c-1.5,0.4-2.6,1.4-3,2.7
			c-0.5,1.4-0.7,4.3-0.7,8.4c0,2.6,0.1,4.3,0.4,5.5c0.5,2.1,2,3.3,4.6,3.6c1.8,0.3,5.5,0.4,10.8,0.4L642.6,64.1L642.6,64.1z"/>
		<path class="st5" d="M709,22h2.6c5.3,0,8.7,0.1,10.4,0.1c1.6,0.1,3.3,0.3,5.1,0.7c4.2,0.8,6.8,3.2,8.1,7c0.5,1.4,0.7,3,0.9,4.7
			c0.2,1.7,0.2,4.3,0.2,7.6c0,3.7-0.1,6.5-0.3,8.4s-0.5,3.7-1,5.2c-1.3,3.7-3.8,5.9-7.6,6.7c-1.8,0.4-3.7,0.7-5.8,0.8
			c-2,0.1-5.4,0.2-10.1,0.2H709V52.8h2.6c3.2,0,5.6-0.1,7.1-0.3c1.6-0.2,2.6-0.6,3.2-1.1c0.7-0.6,1.2-1.6,1.4-2.8
			c0.3-1.3,0.5-3.2,0.5-5.8c0-2.6-0.1-4.5-0.4-5.8c-0.2-1.3-0.6-2.3-1.3-3c-0.6-0.7-1.7-1.3-3-1.4c-1.4-0.2-3.9-0.3-7.8-0.3h-2.6
			 M681.7,63.5V21.9h27.4v10.4h-14.9v20.5h14.9v10.6L681.7,63.5L681.7,63.5z"/>
		<polyline class="st5" points="747,22 760.2,22 760.2,36.8 788.8,36.8 788.8,22 802,22 802,63.5 788.8,63.5 788.8,48.4 760.2,48.4 
			760.2,63.5 747,63.5 		"/>
		<path class="st5" d="M858.6,63.5l-3.5-7.1h-13.7v-9.1h9.2l-8.1-15.7h-1.2V22h9.9l21.7,41.5 M841.4,56.4h-13.7l-3.5,7.1h-14.5
			l22-41.5h9.7v9.6h-1.3l-8,15.8h9.3V56.4z"/>
		<rect x="467" y="106.6" class="st6" width="59.5" height="9.5"/>
		<rect x="467" y="22.5" class="st6" width="59.5" height="9.5"/>
		<rect x="467" y="43.5" class="st6" width="59.5" height="9.5"/>
		<rect x="467" y="64.5" class="st6" width="59.5" height="9.4"/>
		<rect x="467" y="85.5" class="st6" width="59.5" height="9.5"/>
	</g>
</g>
<g>
	<polyline class="st5" points="105,21.8 118.3,21.8 118.3,52.7 147.7,52.7 147.7,63.2 105,63.2 	"/>
	<path class="st5" d="M184.3,21.2c9,0,15.1,0.2,18.4,0.7c4.9,0.6,7.8,3,8.9,6.9c0.6,2.7,1,7.3,1,13.7c0,6.5-0.4,11.1-1,13.8
		c-1.1,3.9-4.1,6.3-8.9,6.9c-3.4,0.5-9.5,0.6-18.3,0.6h-0.2V53h0.1c5.1,0,8.4-0.1,10.1-0.3c1.7-0.2,3-0.6,3.8-1.2
		c0.7-0.6,1.2-1.4,1.4-2.5c0.3-1.1,0.4-3,0.4-5.5c0-3-0.1-5.1-0.3-6.5c-0.2-1.4-0.6-2.5-1.1-3.2c-0.7-0.9-1.8-1.4-3.3-1.7
		c-1.6-0.2-5.3-0.3-11.1-0.3h-0.1 M184.3,63.8c-8.9,0-15.1-0.2-18.4-0.6c-4.8-0.6-7.8-3-8.9-6.9c-0.7-2.7-1.1-7.4-1.1-14
		c0-6.3,0.4-10.8,1.1-13.5c1.1-3.9,4.1-6.3,8.9-6.9c3.4-0.5,9.5-0.7,18.4-0.7V32c-6.7,0-10.7,0.2-12,0.5c-1.5,0.4-2.6,1.4-3,2.7
		c-0.5,1.4-0.7,4.3-0.7,8.4c0,2.6,0.1,4.3,0.4,5.5c0.5,2.1,2,3.3,4.6,3.6c1.8,0.3,5.5,0.4,10.8,0.4L184.3,63.8L184.3,63.8z"/>
	<path class="st5" d="M250.6,21.8h2.6c5.3,0,8.7,0.1,10.4,0.1c1.6,0.1,3.3,0.3,5.1,0.7c4.2,0.8,6.8,3.2,8.1,7c0.5,1.4,0.7,3,0.9,4.7
		c0.2,1.7,0.2,4.3,0.2,7.6c0,3.7-0.1,6.5-0.3,8.4s-0.5,3.6-1,5.2c-1.3,3.6-3.8,5.9-7.6,6.7c-1.8,0.4-3.7,0.7-5.7,0.8
		c-2,0.1-5.4,0.2-10.1,0.2h-2.6V52.5h2.6c3.2,0,5.6-0.1,7.1-0.3c1.6-0.2,2.6-0.6,3.2-1.1c0.7-0.6,1.1-1.6,1.4-2.8
		c0.3-1.3,0.5-3.2,0.5-5.7s-0.1-4.5-0.4-5.8c-0.2-1.3-0.6-2.3-1.3-3c-0.6-0.7-1.7-1.3-3-1.4c-1.4-0.2-3.8-0.3-7.8-0.3h-2.6
		 M223.3,63.2V21.7h27.3v10.3h-14.9v20.5h14.9v10.6L223.3,63.2L223.3,63.2z"/>
	<polyline class="st5" points="288.5,21.8 301.7,21.8 301.7,36.6 330.3,36.6 330.3,21.8 343.4,21.8 343.4,63.2 330.3,63.2 
		330.3,48.2 301.7,48.2 301.7,63.2 288.5,63.2 	"/>
	<path class="st5" d="M399.9,63.2l-3.5-7.1h-13.6v-9h9.2l-8-15.7h-1.2v-9.6h9.9l21.7,41.5 M382.7,56.2h-13.7l-3.5,7.1H351l21.9-41.5
		h9.7v9.6h-1.3l-8,15.7h9.2V56.2z"/>
	<rect x="9.1" y="106.2" class="st6" width="59.3" height="9.5"/>
	<rect x="9.1" y="22.3" class="st6" width="59.3" height="9.5"/>
	<rect x="9.1" y="43.3" class="st6" width="59.3" height="9.5"/>
	<rect x="9.1" y="64.3" class="st6" width="59.3" height="9.4"/>
	<rect x="9.1" y="85.2" class="st6" width="59.3" height="9.5"/>
	<path class="st7" d="M111.5,104.7h1.2c1.4,0.1,2.2,0.1,2.6,0.1c1,0.1,1.8,0.5,2.2,1.2c0.2,0.4,0.3,0.9,0.3,1.6
		c0,0.7-0.1,1.3-0.3,1.6c-0.2,0.4-0.5,0.6-1.1,0.9c0.7,0.1,1.1,0.3,1.4,0.7c0.3,0.4,0.5,1.1,0.5,2c0,1.1-0.2,1.9-0.6,2.4
		c-0.2,0.2-0.6,0.4-0.9,0.5c-0.4,0.1-0.9,0.2-1.7,0.3c-0.6,0.1-1.4,0.1-2.4,0.1h-1.2v-1.4h1.2c1.2,0,2-0.1,2.6-0.1
		c0.5-0.1,0.8-0.2,1-0.3c0.3-0.2,0.5-0.7,0.5-1.4c0-0.8-0.2-1.3-0.5-1.5c-0.2-0.2-0.5-0.3-0.7-0.3c-0.3,0-1.2-0.1-2.8-0.1h-1.2v-1.4
		h1.2c1,0,1.7,0,2.1-0.1c0.3-0.1,0.6-0.1,0.9-0.2c0.4-0.2,0.6-0.7,0.6-1.5c0-0.7-0.2-1.1-0.5-1.4c-0.2-0.2-0.4-0.2-0.7-0.3
		c-0.3-0.1-1.1-0.1-2.4-0.1h-1.2 M105.1,116.1v-11.4h6.3v1.4h-4.8v3.6h4.8v1.4h-4.8v3.8h4.8v1.4L105.1,116.1L105.1,116.1z"/>
	<path class="st7" d="M122.6,104.7h1.5v5.6c0,1.7,0.1,2.6,0.1,3c0.1,0.4,0.2,0.7,0.4,0.9c0.2,0.2,0.5,0.3,1,0.4
		c0.8,0.1,2,0.1,3.4,0.1c2,0,3.4-0.1,4.3-0.2c0.5-0.1,0.7-0.2,1-0.4c0.2-0.2,0.3-0.6,0.3-1c0.1-0.4,0.1-1.4,0.1-2.8v-5.6h1.6v5.6
		c-0.1,1.5-0.1,2.6-0.1,3.1c-0.1,1-0.5,1.7-1.1,2.1c-0.4,0.2-0.9,0.4-1.4,0.5c-0.6,0.1-2,0.1-4.1,0.2c-2-0.1-3-0.1-3.4-0.1
		c-0.4,0-0.8-0.1-1.3-0.2c-0.7-0.1-1.3-0.6-1.6-1.2c-0.2-0.3-0.3-0.7-0.3-1.2c-0.1-0.5-0.1-1.5-0.1-3.1"/>
	<rect x="140.7" y="104.7" class="st8" width="1.5" height="11.4"/>
	<polyline class="st7" points="147,104.7 148.6,104.7 148.6,114.7 157.6,114.7 157.6,116.1 147,116.1 	"/>
	<path class="st7" d="M168.5,104.7h0.8c1.8,0,3,0.1,3.7,0.2c0.8,0.2,1.4,0.6,1.9,1.4c0.2,0.3,0.4,0.9,0.5,1.4
		c0.1,0.6,0.2,1.5,0.2,2.6c0,1.4-0.1,2.5-0.4,3.3c-0.3,1.3-1.2,2-2.4,2.2c-0.7,0.1-1.8,0.2-3.3,0.2h-0.9v-1.4h2.9
		c0.3-0.1,0.6-0.1,0.9-0.2c0.6-0.1,1.1-0.5,1.4-1.2c0.3-0.6,0.4-1.7,0.4-3c0-1.8-0.2-3-0.7-3.5c-0.2-0.2-0.4-0.3-0.7-0.5
		c-0.3-0.1-0.6-0.2-1.1-0.2c-0.3,0-1-0.1-2.2-0.1h-0.8 M161.4,116.1v-11.4h7.1v1.4H163v8.7h5.5v1.4H161.4z"/>
	<rect x="180" y="104.7" class="st8" width="1.5" height="11.4"/>
	<polyline class="st7" points="186.4,104.7 188.9,104.7 198.9,114.7 199.2,114.7 199.2,104.7 200.7,104.7 200.7,116.1 198.1,116.1 
		188.2,106.1 187.9,106.1 187.9,116.1 186.4,116.1 	"/>
	<path class="st7" d="M211.6,110.3h7.4c0,1.8-0.1,2.9-0.2,3.4c-0.1,0.6-0.3,1-0.5,1.3c-0.2,0.3-0.6,0.5-1.1,0.7
		c-0.7,0.2-2.2,0.3-4.7,0.3c-2.2,0-3.8-0.1-4.8-0.2c-0.9-0.1-1.4-0.5-1.8-1c-0.4-0.7-0.6-2.2-0.6-4.4c0-1.6,0.1-2.8,0.3-3.7
		c0.2-0.8,0.7-1.4,1.5-1.6c0.8-0.3,2.4-0.4,4.7-0.4c0.8,0,1.7,0,2.6,0.1c1,0.1,1.6,0.1,2,0.1c0.7,0.1,1.4,0.4,1.8,0.9
		c0.3,0.3,0.5,0.6,0.6,1c0.1,0.3,0.2,0.9,0.2,1.6h-1.6c0-0.9-0.1-1.4-0.3-1.7c-0.2-0.1-0.4-0.2-0.6-0.3c-0.3-0.1-0.7-0.1-1.4-0.2
		c-0.8-0.1-1.8-0.1-3-0.1c-1.6,0-2.7,0.1-3.4,0.2c-0.7,0.1-1.1,0.2-1.4,0.4c-0.2,0.2-0.3,0.6-0.4,1.1c-0.1,0.5-0.1,1.4-0.1,2.5
		c0,1.7,0.1,2.8,0.2,3.4c0.1,0.3,0.2,0.5,0.4,0.7c0.2,0.2,0.5,0.3,0.9,0.3c0.7,0.1,2.4,0.2,4.8,0.2c1.4,0,2.4-0.1,3.1-0.2
		c0.6-0.1,1-0.3,1.1-0.6c0.2-0.3,0.3-1.1,0.3-2.3h-5.9"/>
	<path class="st7" d="M245.1,116.1l-1.4-2.4H239v-1.4h3.8l-3.5-6.3H239v-1.4h1.2l6.4,11.4 M239.1,113.6h-4.6l-1.4,2.4h-1.6l6.4-11.4
		h1.2v1.4h-0.2l-3.6,6.3h3.8L239.1,113.6L239.1,113.6z"/>
	<path class="st7" d="M265.6,104.7h1.3c1.4,0.1,2.2,0.1,2.6,0.1c1.1,0.1,1.8,0.5,2.2,1.2c0.2,0.4,0.3,0.9,0.3,1.6
		c0,0.7-0.1,1.3-0.3,1.6c-0.2,0.4-0.6,0.6-1.1,0.9c0.7,0.1,1.1,0.3,1.4,0.7c0.3,0.4,0.4,1.1,0.4,2c0,1.1-0.2,1.9-0.6,2.4
		c-0.3,0.2-0.6,0.4-0.9,0.5c-0.4,0.1-0.9,0.2-1.7,0.3c-0.6,0.1-1.4,0.1-2.4,0.1h-1.3v-1.4h1.3c1.1,0,2-0.1,2.5-0.1
		c0.5-0.1,0.9-0.2,1.1-0.3c0.3-0.2,0.4-0.7,0.4-1.4c0-0.8-0.1-1.3-0.5-1.5c-0.2-0.2-0.5-0.3-0.8-0.3c-0.3,0-1.2-0.1-2.7-0.1h-1.3
		v-1.4h1.3c1,0,1.7,0,2-0.1c0.4-0.1,0.7-0.1,0.9-0.2c0.5-0.2,0.6-0.7,0.6-1.5c0-0.7-0.1-1.1-0.4-1.4c-0.2-0.2-0.4-0.2-0.7-0.3
		c-0.3-0.1-1.1-0.1-2.4-0.1h-1.3 M259.4,116.1v-11.4h6.3v1.4h-4.8v3.6h4.8v1.4h-4.8v3.8h4.8v1.4L259.4,116.1L259.4,116.1z"/>
	<polyline class="st7" points="277,116.1 277,104.7 288.1,104.7 288.1,106 278.5,106 278.5,109.5 287.7,109.5 287.7,110.8 
		278.5,110.8 278.5,114.7 288.2,114.7 288.2,116.1 	"/>
	<polyline class="st7" points="291.4,104.7 304.4,104.7 304.4,106 298.7,106 298.7,116.1 297.1,116.1 297.1,106 291.4,106 	"/>
	<polyline class="st7" points="307.4,104.7 320.3,104.7 320.3,106 314.7,106 314.7,116.1 313.2,116.1 313.2,106 307.4,106 	"/>
	<polyline class="st7" points="324.2,116.1 324.2,104.7 335.4,104.7 335.4,106 325.8,106 325.8,109.5 335,109.5 335,110.8 
		325.8,110.8 325.8,114.7 335.5,114.7 335.5,116.1 	"/>
	<path class="st7" d="M346.1,104.7h0.6c1.9,0.1,3.1,0.1,3.7,0.2c0.9,0.1,1.6,0.5,1.9,1.3c0.2,0.5,0.4,1.1,0.4,2
		c0,0.6-0.1,1.1-0.1,1.5c-0.1,0.3-0.2,0.6-0.4,0.8c-0.3,0.3-0.7,0.6-1.4,0.7c0.5,0.1,0.9,0.3,1.1,0.6c0.2,0.2,0.3,0.5,0.4,0.8
		s0.1,1,0.1,1.9v1.6H351V115c0-0.9-0.1-1.6-0.1-1.9c-0.1-0.7-0.5-1.1-1.2-1.3c-0.3-0.1-0.6-0.1-0.7-0.1h-2.8v-1.4h0.6
		c1.4,0,2.4,0,2.8-0.1c0.4,0,0.7-0.1,1-0.3c0.3-0.2,0.6-0.9,0.6-1.9c0-0.9-0.2-1.4-0.6-1.7c-0.2-0.2-0.6-0.2-1.1-0.3
		c-0.5-0.1-1.4-0.1-2.8-0.1h-0.6 M339.6,116.1v-11.4h6.5v1.4h-5v4.3h5v1.4h-5v4.3H339.6z"/>
	<polyline class="st7" points="366.6,104.7 368.1,104.7 368.1,114.7 377,114.7 377,116.1 366.6,116.1 	"/>
	<rect x="381" y="104.7" class="st8" width="1.5" height="11.4"/>
	<polyline class="st7" points="387.2,116.1 387.2,104.7 398,104.7 398,106 388.8,106 388.8,109.7 397.6,109.7 397.6,111 388.8,111 
		388.8,116.1 	"/>
	<polyline class="st7" points="401.9,116.1 401.9,104.7 413,104.7 413,106 403.4,106 403.4,109.5 412.6,109.5 412.6,110.8 
		403.4,110.8 403.4,114.7 413,114.7 413,116.1 	"/>
</g>
<rect x="440" y="13.2" width="1" height="111.1"/>
</svg>
